<svg xmlns="http://www.w3.org/2000/svg" width="28.2" height="24.676" viewBox="0 0 28.2 24.676">
  <defs>
    <style>
      .cls-1 {
        opacity: 0.11;
      }
    </style>
  </defs>
  <g id="CameraUploadImage" class="cls-1">
    <path id="Path_3978" data-name="Path 3978" d="M191.725,199.9a5.016,5.016,0,1,1-7.093,0,5.016,5.016,0,0,1,7.093,0" transform="translate(-174.07 -190.222)"/>
    <path id="Path_3979" data-name="Path 3979" d="M24.675,34.047H22.239l-1.763-3.525H7.722L5.961,34.049l-2.432,0A3.531,3.531,0,0,0,.009,37.577L0,51.672A3.529,3.529,0,0,0,3.525,55.2h21.15A3.529,3.529,0,0,0,28.2,51.673v-14.1A3.529,3.529,0,0,0,24.675,34.047ZM14.1,50.791a7.05,7.05,0,1,1,7.05-7.05,7.058,7.058,0,0,1-7.05,7.05Z" transform="translate(0 -30.522)"/>
  </g>
</svg>
