<?xml version="1.0" encoding="utf-8"?>
<!-- Generator: Adobe Illustrator 24.0.2, SVG Export Plug-In . SVG Version: 6.00 Build 0)  -->
<svg version="1.1" id="Layer_1" xmlns="http://www.w3.org/2000/svg" xmlns:xlink="http://www.w3.org/1999/xlink" x="0px" y="0px"
	 viewBox="0 0 1000 1000" style="enable-background:new 0 0 1000 1000;" xml:space="preserve">
<style type="text/css">
	.st0{fill:#517CBE;}
	.st1{fill:#32A853;}
	.st2{fill:#F9BB0E;}
	.st3{fill:#E84336;}
</style>
<g>
	<path id="Fill-8" class="st0" d="M976.9,511c0-34.3-2.9-67.3-8.4-99H509.2v187.4h263.1C761,660.5,726.9,712.4,675,747.2v121.7h157
		C924,784.2,976.9,659,976.9,511"/>
	<path id="Fill-10" class="st1" d="M509.2,986.4c131.4,0,242.1-43.1,322.8-117.5L675,747.2c-43.7,29.4-100,46.6-165.8,46.6
		c-127,0-234.9-85.6-273.4-200.9H74v125.3C154.2,877.3,318.9,986.4,509.2,986.4"/>
	<path id="Fill-12" class="st2" d="M235.8,593c-9.9-29.4-15.3-60.7-15.3-93.1c0-32.3,5.4-63.7,15.3-93.1V281.4H74
		c-33.1,65.7-51.9,139.9-51.9,218.5c0,78.6,18.7,152.8,51.9,218.5L235.8,593z"/>
	<path id="Fill-14" class="st3" d="M509.2,205.9c71.8,0,136.1,24.6,186.8,73v0.1l139-138.9C750.7,61.6,640.6,13.4,509.2,13.4
		c-190.3,0-355,109.1-435.2,268.1l161.7,125.3C274.4,291.4,382.2,205.9,509.2,205.9"/>
</g>
</svg>
