<svg xmlns="http://www.w3.org/2000/svg" xmlns:xlink="http://www.w3.org/1999/xlink" viewBox="0 0 25.8 28.43"><defs><style>.cls-1{fill:url(#linear-gradient);}</style><linearGradient id="linear-gradient" y1="14.22" x2="25.8" y2="14.22" gradientUnits="userSpaceOnUse"><stop offset="0" stop-color="#356bb2"/><stop offset="1" stop-color="#403b8f"/></linearGradient></defs><title>Asset 2</title><g id="Layer_2" data-name="Layer 2"><g id="Layer_1-2" data-name="Layer 1"><path class="cls-1" d="M25.8,14.21a15.12,15.12,0,0,1-1.06,5.69,13.26,13.26,0,0,1-3,4.5,13.63,13.63,0,0,1-4.65,3,16.48,16.48,0,0,1-6,1.06H0V0H11.05a16.48,16.48,0,0,1,6,1.07,13.94,13.94,0,0,1,4.65,3,13.16,13.16,0,0,1,3,4.5A15,15,0,0,1,25.8,14.21Z"/></g></g></svg>