<svg id="Layer_1" data-name="Layer 1" xmlns="http://www.w3.org/2000/svg" xmlns:xlink="http://www.w3.org/1999/xlink" viewBox="0 0 348 348"><defs><style>.cls-1{fill:none;}.cls-2{clip-path:url(#clip-path);}.cls-3{clip-path:url(#clip-path-2);}.cls-4{fill:#ddbca6;}.cls-5{fill:#4218b8;}.cls-6{fill:#2e109b;}.cls-7{fill:#f7ceb2;}.cls-8{fill:#222228;}.cls-9{fill:#84653c;}.cls-10{fill:#b57662;opacity:0.4;}.cls-11{fill:#d39484;}</style><clipPath id="clip-path"><rect class="cls-1" x="-5.98" y="-7.02" width="373.44" height="371.86"/></clipPath><clipPath id="clip-path-2"><rect class="cls-1" width="348" height="348" rx="20.42"/></clipPath></defs><title>Artboard 34</title><g class="cls-2"><g class="cls-3"><polygon class="cls-4" points="190.85 254.78 189.09 327.76 145.1 308.1 146.48 232.95 190.85 254.78"/><path class="cls-5" d="M261.69,308.88S257.45,439.46,249,505.74c0,0-32.34,14.48-83.85,12.38-36.39-1.48-46.88-9.26-46.88-9.26L66.1,294.13s26.24-12.73,81.69-12.67c0,0-.09-1.77,12.46,4.9,9.63,5.11,12.94,40,12.94,40s1.88-35.06,7.32-37.94c8.37-4.43,6.88-3.48,13.78-5.32,20.9,1.44,42.62,7.8,67,11.82Z"/><polygon class="cls-6" points="209.28 281.65 195.78 311.48 180.51 288.43 204.52 272.45 209.28 281.65"/><polygon class="cls-6" points="130.83 280.87 148.99 310.13 161.74 286.42 135.21 269.22 130.83 280.87"/><path class="cls-7" d="M154.21,73c-41.79,9.53-40.67,38.24-40.67,38.24s1.29,22.17,2.12,48.57a13.75,13.75,0,0,0-17.12-4.67c-14.23,6.09-3.72,50.9,17.91,47,.93,12.51,2.16,22.26,3.76,25.63C126.28,240.57,153,260,176.67,263s53.43-12.75,53.43-40.67S230.46,91,230.46,91,223.42,57.23,154.21,73Z"/><path class="cls-8" d="M167.41,157.7c0,6.09-2.71,11-6,11s-6.06-4.94-6.06-11,2.72-11,6.06-11S167.41,151.62,167.41,157.7Z"/><path class="cls-8" d="M218.41,160.13c0,6.09-2.71,11-6.06,11s-6-4.93-6-11,2.71-11,6-11S218.41,154.05,218.41,160.13Z"/><path class="cls-9" d="M177.28,132.51c-3.1-.79-6.06-1.51-9-2a38.9,38.9,0,0,0-8.66-.66,19.83,19.83,0,0,0-8,2.07,27.21,27.21,0,0,0-7.07,5.48,15.14,15.14,0,0,1,2-4.43,16.11,16.11,0,0,1,1.52-2,15.93,15.93,0,0,1,1.87-1.7,16.86,16.86,0,0,1,9.53-3.42,24.08,24.08,0,0,1,9.73,1.63A24.35,24.35,0,0,1,177.28,132.51Z"/><path class="cls-9" d="M202.17,132.51a17.57,17.57,0,0,1,6.42-5,16,16,0,0,1,8.41-1.58,12.25,12.25,0,0,1,7.88,3.93,13.81,13.81,0,0,1,3.39,7.56,33.57,33.57,0,0,0-5.49-5.21,13,13,0,0,0-6.19-2.3,22.08,22.08,0,0,0-7,.56C207.21,130.94,204.77,131.69,202.17,132.51Z"/><path class="cls-10" d="M100.47,162.87c7.41-3.75,14,8.19,14.28,20.94-6.07-.91-7.1,6.16-3.72,11.16C99,197.52,92.6,166.86,100.47,162.87Z"/><path class="cls-11" d="M193.37,146.1a88.33,88.33,0,0,1,3.39,10.68c1,3.61,1.81,7.26,2.54,10.92s1.44,7.34,2,11,1.17,7.38,1.62,11.08l0,.26-.23.11L196,193.49c-2.26,1.08-4.5,2.17-6.77,3.23,2.17-1.24,4.38-2.42,6.57-3.63l6.61-3.54-.19.37-1.85-11c-.68-3.66-1.3-7.34-2-11s-1.47-7.31-2.26-10.95S194.48,149.66,193.37,146.1Z"/><path class="cls-5" d="M331.27,518.56,293.94,408.67,261.28,294.93c-16.31-3.87-50.4-.38-28.57,60.92l27.39,85.31L292,537.39Z"/><path class="cls-5" d="M.61,519.74,33.22,408.67,65.89,294.93c16.3-3.87,50.39-.38,28.56,60.92L67.06,441.16l-33.5,91.92Z"/><path class="cls-11" d="M160.64,213.79c2,.87,4.05,1.68,6.12,2.38s4.14,1.41,6.23,2a93.4,93.4,0,0,0,12.77,2.75,69.15,69.15,0,0,0,13,.64l3.25-.26c1.09-.07,2.15-.35,3.23-.51l1.61-.26c.54-.09,1.06-.27,1.59-.4l3.17-.85a45.6,45.6,0,0,1-12.8,3,63.34,63.34,0,0,1-13.2-.43,83.19,83.19,0,0,1-12.85-3A73.43,73.43,0,0,1,160.64,213.79Z"/><path class="cls-9" d="M231.24,98.87c8.67-1.14,24.72-18.44,18.44-36.48,0,0-1.57,9.8-15.3,9.8,0,0,7.85-3.13,9.42-7.84,0,0-9.81,5.88-33-8.24-2.08-1.27-4.44-2.6-7-3.92a58.92,58.92,0,0,0-10.72-4.86C166.71,36.9,129,33.61,116,83a19.31,19.31,0,0,0-.72,2.78s-18.39-2-18.39,29.19c0,11.79,4.39,24,10.1,39,5.6.8,9.12,8.48,9.12,8.48l2.61,20.16c0,5.49-.34,14.7-2.28,19.62-2.88,7.29-6.8,41.41,37.92,58.67s85.9-.78,75.7-58.83c0,0,.89,15.65-6.17,13.68s-.44-22.2-34.2-18.43c-10.66-1.33-25.1-10-36.9,10.24-9.25,15.83-26.2,5-27.51-35.11v-10.2c0-.59,0-1.16,0-1.76l0,.12V133.34s12.54-10.79,14-26.06c82.13,31.59,107.23-8.41,107.23-8.41S240.72,100.78,231.24,98.87ZM161,210.65c17.56,5.35,30.44-1.82,30.44-1.82,10.22,8,23.69,7.32,23.69,7.32,2,2.35,7.45,20-11.37,27.06s-14.12-13.73-14.12-13.73l-7.46-1.17s2.9,16.12-13.72,14.51C144.17,240.46,161,210.65,161,210.65Z"/></g></g></svg>