<svg xmlns="http://www.w3.org/2000/svg" xmlns:xlink="http://www.w3.org/1999/xlink" viewBox="0 0 234.4 234.14"><defs><style>.cls-1{fill:#ccc;}.cls-2{fill:url(#linear-gradient);}.cls-3{fill:blue;}.cls-4{fill:url(#linear-gradient-2);}.cls-5{fill:url(#linear-gradient-3);}.cls-6{fill:url(#linear-gradient-4);}.cls-7{fill:url(#linear-gradient-5);}</style><linearGradient id="linear-gradient" x1="32.81" y1="101.79" x2="107.75" y2="101.79" gradientUnits="userSpaceOnUse"><stop offset="0" stop-color="#0073f1"/><stop offset="1" stop-color="#4218b8"/></linearGradient><linearGradient id="linear-gradient-2" x1="116.6" y1="177.57" x2="230.8" y2="177.57" xlink:href="#linear-gradient"/><linearGradient id="linear-gradient-3" x1="113" y1="177.57" x2="234.4" y2="177.57" xlink:href="#linear-gradient"/><linearGradient id="linear-gradient-4" x1="160.3" y1="133.53" x2="187.1" y2="133.53" xlink:href="#linear-gradient"/><linearGradient id="linear-gradient-5" x1="156.7" y1="133.53" x2="190.71" y2="133.53" xlink:href="#linear-gradient"/></defs><title>Asset 13</title><g id="Layer_2" data-name="Layer 2"><g id="Layer_1-2" data-name="Layer 1"><path class="cls-1" d="M139.68,56.82H79.31V2.37h60.37ZM82.17,54.24h54.65V4.94H82.17Z"/><path class="cls-1" d="M137.06,59.18H81.93a5,5,0,0,1-5.24-4.73V4.73A5,5,0,0,1,81.93,0h55.13a5,5,0,0,1,5.24,4.73V54.45A5,5,0,0,1,137.06,59.18ZM90,51.87H129a5,5,0,0,0,5.25-4.73V12A5,5,0,0,0,129,7.31H90A5,5,0,0,0,84.79,12v35.1A5,5,0,0,0,90,51.87Z"/><path class="cls-1" d="M119.24,22.69H99.75V2.37h19.49ZM102.6,20.11h13.79V4.94H102.6Z"/><path class="cls-1" d="M121.87,25.06H97.12V0h24.75Zm-16.64-7.31h8.53V7.31h-8.53Z"/><path class="cls-1" d="M188.12,113.91H116.6V66.28h71.52Zm-67.59-2.58h63.66V68.85H120.53Z"/><path class="cls-1" d="M184.51,116.27h-64.3c-4,0-7.21-2.12-7.21-4.73V68.64c0-2.61,3.23-4.73,7.21-4.73h64.3c4,0,7.21,2.12,7.21,4.73v42.9C191.72,114.15,188.49,116.27,184.51,116.27ZM131.35,109h42c4,0,7.21-2.11,7.21-4.73V76c0-2.61-3.22-4.73-7.21-4.73h-42c-4,0-7.21,2.12-7.21,4.73v28.28C124.14,106.85,127.37,109,131.35,109Z"/><path class="cls-1" d="M165.76,86.6H139V66.28h26.8ZM142.89,84h18.94V68.85H142.89Z"/><path class="cls-1" d="M169.37,89h-34V63.91h34Zm-22.88-7.31h11.74V71.22H146.49Z"/><path d="M102,137.31H38.58a3,3,0,0,1-3.14-2.84V69.12a3,3,0,0,1,3.14-2.84H102a3,3,0,0,1,3.15,2.84v65.35A3,3,0,0,1,102,137.31Zm-60.54-2.58H99.13a3,3,0,0,0,3.14-2.84V71.69a3,3,0,0,0-3.14-2.84H41.44a3,3,0,0,0-3.14,2.84v60.2A3,3,0,0,0,41.44,134.73Z"/><path class="cls-2" d="M102.51,139.67H38.06a5,5,0,0,1-5.25-4.73V68.64a5,5,0,0,1,5.25-4.73h64.45a5,5,0,0,1,5.24,4.73v66.3A5,5,0,0,1,102.51,139.67Zm-56.35-7.31H94.4a5,5,0,0,0,5.25-4.73V76a5,5,0,0,0-5.25-4.73H46.16A5,5,0,0,0,40.92,76v51.68A5,5,0,0,0,46.16,132.36Z"/><path d="M76.89,86.6H63.68a3,3,0,0,1-3.15-2.84V69.12a3,3,0,0,1,3.15-2.84H76.89A3,3,0,0,1,80,69.12V83.76A3,3,0,0,1,76.89,86.6ZM66.54,84H74a3,3,0,0,0,3.15-2.84V71.69A3,3,0,0,0,74,68.85H66.54a3,3,0,0,0-3.15,2.84v9.49A3,3,0,0,0,66.54,84Z"/><path class="cls-3" d="M79.51,89H61.06a3,3,0,0,1-3.15-2.84V66.75a3,3,0,0,1,3.15-2.84H79.51a3,3,0,0,1,3.15,2.84V86.13A3,3,0,0,1,79.51,89ZM69.16,81.66h2.25a3,3,0,0,0,3.14-2.84V74.06a3,3,0,0,0-3.14-2.84H69.16A3,3,0,0,0,66,74.06v4.76A3,3,0,0,0,69.16,81.66Z"/><path class="cls-1" d="M105.13,231.78H2.62v-85H105.13ZM5.48,229.2h96.79V149.35H5.48Z"/><path class="cls-1" d="M102.51,234.14H5.25A5,5,0,0,1,0,229.41V149.13a5,5,0,0,1,5.25-4.73h97.26a5,5,0,0,1,5.24,4.73v80.28A5,5,0,0,1,102.51,234.14Zm-89.16-7.31H94.4a5,5,0,0,0,5.25-4.73V156.44a5,5,0,0,0-5.25-4.73H13.35a5,5,0,0,0-5.25,4.73V222.1A5,5,0,0,0,13.35,226.83Z"/><path class="cls-1" d="M63.63,167.09H44.13V146.77h19.5ZM47,164.52H60.77V149.35H47Z"/><path class="cls-1" d="M66.25,169.46H41.51V144.4H66.25Zm-16.64-7.31h8.54V151.71H49.61Z"/><path class="cls-4" d="M230.8,231.78H116.6V123.37H230.8ZM120.53,229.2H226.87V126H120.53Z"/><path class="cls-5" d="M225.75,234.14H121.65c-4.78,0-8.65-2.54-8.65-5.67V126.68c0-3.13,3.87-5.68,8.65-5.68h104.1c4.78,0,8.65,2.55,8.65,5.68V228.47C234.4,231.6,230.53,234.14,225.75,234.14Zm-93-7.31h81.82c4.78,0,8.66-2.54,8.66-5.67V134c0-3.14-3.88-5.68-8.66-5.68H132.79c-4.78,0-8.65,2.54-8.65,5.68v87.17C124.14,224.29,128,226.83,132.79,226.83Z"/><path class="cls-6" d="M187.1,143.69H160.3V123.37h26.8Zm-22.87-2.57h18.94V126H164.23Z"/><path class="cls-7" d="M190.71,146.06h-34V121h34Zm-22.88-7.31h11.74V128.31H167.83Z"/></g></g></svg>