<svg xmlns="http://www.w3.org/2000/svg" xmlns:xlink="http://www.w3.org/1999/xlink" viewBox="0 0 201.33 234.14"><defs><style>.cls-1{fill:#ccc;}.cls-2{fill:url(#linear-gradient);}.cls-3{fill:blue;}.cls-4{fill:url(#linear-gradient-2);}.cls-5{fill:url(#linear-gradient-3);}.cls-6{fill:url(#linear-gradient-4);}.cls-7{fill:url(#linear-gradient-5);}</style><linearGradient id="linear-gradient" x1="32.81" y1="101.79" x2="107.75" y2="101.79" gradientUnits="userSpaceOnUse"><stop offset="0" stop-color="#0073f1"/><stop offset="1" stop-color="#4218b8"/></linearGradient><linearGradient id="linear-gradient-2" x1="115.62" y1="177.57" x2="198.71" y2="177.57" xlink:href="#linear-gradient"/><linearGradient id="linear-gradient-3" x1="113" y1="177.57" x2="201.33" y2="177.57" xlink:href="#linear-gradient"/><linearGradient id="linear-gradient-4" x1="147.41" y1="133.53" x2="166.91" y2="133.53" xlink:href="#linear-gradient"/><linearGradient id="linear-gradient-5" x1="144.79" y1="133.53" x2="169.54" y2="133.53" xlink:href="#linear-gradient"/></defs><title>Asset 12</title><g id="Layer_2" data-name="Layer 2"><g id="Layer_1-2" data-name="Layer 1"><path class="cls-1" d="M139.68,56.82H79.31V2.37h60.37ZM82.17,54.24h54.65V4.94H82.17Z"/><path class="cls-1" d="M137.06,59.18H81.93a5,5,0,0,1-5.24-4.73V4.73A5,5,0,0,1,81.93,0h55.13a5,5,0,0,1,5.24,4.73V54.45A5,5,0,0,1,137.06,59.18ZM90,51.87H129a5,5,0,0,0,5.25-4.73V12A5,5,0,0,0,129,7.31H90A5,5,0,0,0,84.79,12v35.1A5,5,0,0,0,90,51.87Z"/><path class="cls-1" d="M119.24,22.69H99.75V2.37h19.49ZM102.6,20.11h13.79V4.94H102.6Z"/><path class="cls-1" d="M121.87,25.06H97.12V0h24.75Zm-16.64-7.31h8.53V7.31h-8.53Z"/><path class="cls-1" d="M167.65,113.91h-52V66.28h52Zm-49.17-2.58h46.31V68.85H118.48Z"/><path class="cls-1" d="M165,116.27H118.24a5,5,0,0,1-5.24-4.73V68.64a5,5,0,0,1,5.24-4.73H165a5,5,0,0,1,5.24,4.73v42.9A5,5,0,0,1,165,116.27ZM126.35,109h30.58a5,5,0,0,0,5.24-4.73V76a5,5,0,0,0-5.24-4.73H126.35A5,5,0,0,0,121.1,76v28.28A5,5,0,0,0,126.35,109Z"/><path class="cls-1" d="M151.39,86.6h-19.5V66.28h19.5ZM134.75,84h13.78V68.85H134.75Z"/><path class="cls-1" d="M154,89H129.27V63.91H154Zm-16.64-7.31h8.54V71.22h-8.54Z"/><path d="M102,137.31H38.58a3,3,0,0,1-3.14-2.84V69.12a3,3,0,0,1,3.14-2.84H102a3,3,0,0,1,3.15,2.84v65.35A3,3,0,0,1,102,137.31Zm-60.54-2.58H99.13a3,3,0,0,0,3.14-2.84V71.69a3,3,0,0,0-3.14-2.84H41.44a3,3,0,0,0-3.14,2.84v60.2A3,3,0,0,0,41.44,134.73Z"/><path class="cls-2" d="M102.51,139.67H38.06a5,5,0,0,1-5.25-4.73V68.64a5,5,0,0,1,5.25-4.73h64.45a5,5,0,0,1,5.24,4.73v66.3A5,5,0,0,1,102.51,139.67Zm-56.35-7.31H94.4a5,5,0,0,0,5.25-4.73V76a5,5,0,0,0-5.25-4.73H46.16A5,5,0,0,0,40.92,76v51.68A5,5,0,0,0,46.16,132.36Z"/><path d="M76.89,86.6H63.68a3,3,0,0,1-3.15-2.84V69.12a3,3,0,0,1,3.15-2.84H76.89A3,3,0,0,1,80,69.12V83.76A3,3,0,0,1,76.89,86.6ZM66.54,84H74a3,3,0,0,0,3.15-2.84V71.69A3,3,0,0,0,74,68.85H66.54a3,3,0,0,0-3.15,2.84v9.49A3,3,0,0,0,66.54,84Z"/><path class="cls-3" d="M79.51,89H61.06a3,3,0,0,1-3.15-2.84V66.75a3,3,0,0,1,3.15-2.84H79.51a3,3,0,0,1,3.15,2.84V86.13A3,3,0,0,1,79.51,89ZM69.16,81.66h2.25a3,3,0,0,0,3.14-2.84V74.06a3,3,0,0,0-3.14-2.84H69.16A3,3,0,0,0,66,74.06v4.76A3,3,0,0,0,69.16,81.66Z"/><path class="cls-1" d="M105.13,231.78H2.62v-85H105.13ZM5.48,229.2h96.79V149.35H5.48Z"/><path class="cls-1" d="M102.51,234.14H5.25A5,5,0,0,1,0,229.41V149.13a5,5,0,0,1,5.25-4.73h97.26a5,5,0,0,1,5.24,4.73v80.28A5,5,0,0,1,102.51,234.14Zm-89.16-7.31H94.4a5,5,0,0,0,5.25-4.73V156.44a5,5,0,0,0-5.25-4.73H13.35a5,5,0,0,0-5.25,4.73V222.1A5,5,0,0,0,13.35,226.83Z"/><path class="cls-1" d="M63.63,167.09H44.13V146.77h19.5ZM47,164.52H60.77V149.35H47Z"/><path class="cls-1" d="M66.25,169.46H41.51V144.4H66.25Zm-16.64-7.31h8.54V151.71H49.61Z"/><path class="cls-4" d="M198.71,231.78H115.62V123.37h83.09Zm-80.23-2.58h77.37V126H118.48Z"/><path class="cls-5" d="M195,234.14H119.29c-3.47,0-6.29-2.54-6.29-5.67V126.68c0-3.13,2.82-5.68,6.29-5.68H195c3.48,0,6.3,2.55,6.3,5.68V228.47C201.33,231.6,198.51,234.14,195,234.14Zm-67.63-7.31h59.53c3.48,0,6.29-2.54,6.29-5.67V134c0-3.14-2.81-5.68-6.29-5.68H127.4c-3.48,0-6.3,2.54-6.3,5.68v87.17C121.1,224.29,123.92,226.83,127.4,226.83Z"/><path class="cls-6" d="M166.91,143.69h-19.5V123.37h19.5Zm-16.64-2.57h13.78V126H150.27Z"/><path class="cls-7" d="M169.54,146.06H144.79V121h24.75Zm-16.64-7.31h8.53V128.31H152.9Z"/></g></g></svg>