<svg xmlns="http://www.w3.org/2000/svg" xmlns:xlink="http://www.w3.org/1999/xlink" viewBox="0 0 257.57 247.47"><defs><style>.cls-1{fill:#ccc;}.cls-2{fill:url(#linear-gradient);}.cls-3{fill:url(#linear-gradient-2);}.cls-4{fill:url(#linear-gradient-3);}.cls-5{fill:url(#linear-gradient-4);}</style><linearGradient id="linear-gradient" x1="65.04" y1="61.87" x2="192.52" y2="61.87" gradientUnits="userSpaceOnUse"><stop offset="0" stop-color="#0073f1"/><stop offset="1" stop-color="#4218b8"/></linearGradient><linearGradient id="linear-gradient-2" x1="61.78" y1="61.87" x2="195.78" y2="61.87" xlink:href="#linear-gradient"/><linearGradient id="linear-gradient-3" x1="116.66" y1="17.27" x2="140.91" y2="17.27" xlink:href="#linear-gradient"/><linearGradient id="linear-gradient-4" x1="113.4" y1="17.27" x2="144.17" y2="17.27" xlink:href="#linear-gradient"/></defs><title>Asset 10</title><g id="Layer_2" data-name="Layer 2"><g id="Layer_1-2" data-name="Layer 1"><path class="cls-1" d="M130.74,244.21H3.26V127H130.74ZM6.82,240.65H127.18V130.55H6.82Z"/><path class="cls-1" d="M127.48,247.47H6.52A6.52,6.52,0,0,1,0,240.94V130.26a6.52,6.52,0,0,1,6.52-6.53h121a6.52,6.52,0,0,1,6.52,6.53V240.94A6.52,6.52,0,0,1,127.48,247.47ZM16.6,237.39H117.4a6.52,6.52,0,0,0,6.52-6.52V140.33a6.52,6.52,0,0,0-6.52-6.52H16.6a6.52,6.52,0,0,0-6.52,6.52v90.54A6.52,6.52,0,0,0,16.6,237.39Z"/><path class="cls-1" d="M79.12,155H54.88V127H79.12Zm-20.69-3.56H75.57V130.55H58.43Z"/><path class="cls-1" d="M82.39,158.28H51.61V123.73H82.39ZM61.69,148.2H72.31V133.81H61.69Z"/><path class="cls-1" d="M254.3,244.21H126.83V127H254.3Zm-123.92-3.56H250.75V130.55H130.38Z"/><path class="cls-1" d="M251,247.47H130.09a6.53,6.53,0,0,1-6.53-6.53V130.26a6.53,6.53,0,0,1,6.53-6.53H251a6.53,6.53,0,0,1,6.53,6.53V240.94A6.53,6.53,0,0,1,251,247.47ZM140.17,237.39H241a6.52,6.52,0,0,0,6.53-6.52V140.33a6.52,6.52,0,0,0-6.53-6.52H140.17a6.52,6.52,0,0,0-6.53,6.52v90.54A6.52,6.52,0,0,0,140.17,237.39Z"/><path class="cls-1" d="M202.69,155H178.44V127h24.25ZM182,151.46h17.13V130.55H182Z"/><path class="cls-1" d="M206,158.28H175.18V123.73H206ZM185.26,148.2h10.61V133.81H185.26Z"/><path class="cls-2" d="M192.52,120.47H65V3.26H192.52ZM68.6,116.92H189V6.82H68.6Z"/><path class="cls-3" d="M189.26,123.73H68.31a6.52,6.52,0,0,1-6.53-6.52V6.52A6.52,6.52,0,0,1,68.31,0h121a6.52,6.52,0,0,1,6.52,6.52V117.21A6.52,6.52,0,0,1,189.26,123.73ZM78.38,113.66h100.8a6.53,6.53,0,0,0,6.53-6.53V16.6a6.53,6.53,0,0,0-6.53-6.52H78.38a6.52,6.52,0,0,0-6.52,6.52v90.53A6.52,6.52,0,0,0,78.38,113.66Z"/><path class="cls-4" d="M140.91,31.29H116.66v-28h24.25Zm-20.7-3.56h17.14V6.82H120.21Z"/><path class="cls-5" d="M144.17,34.55H113.4V0h30.77Zm-20.7-10.08h10.62V10.08H123.47Z"/></g></g></svg>